<?xml version="1.0" standalone="no"?>
<!DOCTYPE svg PUBLIC "-//W3C//DTD SVG 20010904//EN"
 "http://www.w3.org/TR/2001/REC-SVG-20010904/DTD/svg10.dtd">
<svg version="1.0" xmlns="http://www.w3.org/2000/svg"
 width="394.000000pt" height="394.000000pt" viewBox="0 0 394.000000 394.000000"
 preserveAspectRatio="xMidYMid meet">
<metadata>
Created by potrace 1.11, written by Peter Selinger 2001-2013
</metadata>
<g transform="translate(0.000000,394.000000) scale(0.100000,-0.100000)"
fill="#000000" stroke="none">
<path d="M1804 3930 c-1219 -118 -2030 -1304 -1698 -2479 26 -90 26 -95 10
-120 -57 -86 -71 -133 -71 -236 0 -91 3 -106 31 -166 30 -62 96 -149 114 -149
4 0 13 22 20 49 11 48 74 161 89 161 4 0 17 -17 28 -38 80 -141 313 -395 475
-518 231 -174 485 -291 770 -354 129 -29 133 -19 5 13 -730 182 -1274 768
-1401 1509 -81 471 0 893 244 1267 165 253 408 415 699 466 390 69 796 -106
1020 -438 49 -73 117 -222 141 -312 31 -113 38 -327 15 -450 -16 -86 -72 -248
-101 -290 -17 -24 -18 -35 -1 -35 27 -1 128 -49 168 -81 54 -42 114 -135 127
-197 28 -127 24 -144 -29 -113 -87 51 -237 63 -327 26 -33 -15 -34 -16 -28
-56 39 -242 231 -450 473 -513 78 -20 240 -21 318 -1 174 44 335 175 414 335
54 110 75 209 68 320 -16 250 -158 454 -388 559 l-64 29 61 59 c79 78 147 106
259 107 44 1 94 -2 110 -7 l30 -7 0 137 c1 124 3 145 27 205 33 88 82 167 141
231 57 61 50 65 121 -73 274 -529 283 -1144 25 -1677 -27 -58 -48 -107 -46
-110 3 -2 35 56 71 129 200 404 256 834 165 1281 -68 337 -248 678 -494 936
-302 317 -693 521 -1121 586 -126 19 -353 26 -470 15z"/>
</g>
</svg>
